<?xml version="1.0" encoding="utf-8"?>
<!-- Generator: Adobe Illustrator 22.1.0, SVG Export Plug-In . SVG Version: 6.00 Build 0)  -->
<svg version="1.1" id="Layer_1" xmlns="http://www.w3.org/2000/svg" xmlns:xlink="http://www.w3.org/1999/xlink" x="0px" y="0px"
	 width="14px" height="48px" viewBox="0 0 14 48" style="enable-background:new 0 0 14 48;" xml:space="preserve">
<style type="text/css">
	.st0{fill:#6A7180;}
	.st1{fill:#FFFFFF;}
	.st2{fill:#8B8E94;}
</style>
<path class="st0" d="M14,15c0,0.6-0.4,0.7-0.8,0.4l-5.4-3.8c-0.4-0.3-1.2-0.3-1.6,0l-5.4,3.8C0.4,15.7,0,15.5,0,15V1
	c0-0.6,0.4-1,1-1h12c0.6,0,1,0.4,1,1V15z"/>
<path class="st1" d="M14,31c0,0.6-0.4,0.7-0.8,0.4l-5.4-3.8c-0.4-0.3-1.2-0.3-1.6,0l-5.4,3.8C0.4,31.7,0,31.6,0,31V17
	c0-0.5,0.4-1,1-1h12c0.6,0,1,0.5,1,1V31z"/>
<path class="st2" d="M14,47c0,0.5-0.4,0.7-0.8,0.4l-5.4-3.8c-0.4-0.3-1.2-0.3-1.6,0l-5.4,3.8C0.4,47.7,0,47.6,0,47V33
	c0-0.5,0.4-1,1-1h12c0.6,0,1,0.5,1,1V47z"/>
</svg>
