<?xml version="1.0" encoding="utf-8"?>
<!-- Generator: Adobe Illustrator 22.1.0, SVG Export Plug-In . SVG Version: 6.00 Build 0)  -->
<svg version="1.1" id="Layer_1" xmlns="http://www.w3.org/2000/svg" xmlns:xlink="http://www.w3.org/1999/xlink" x="0px" y="0px"
	 width="17px" height="34px" viewBox="0 0 17 34" style="enable-background:new 0 0 17 34;" xml:space="preserve">
<style type="text/css">
	.st0{fill:#FFFFFF;}
	.st1{fill:#EE3643;}
</style>
<g id="Layer_1_1_">
</g>
<g id="Layer_2_1_">
	<path class="st0" d="M17,15.6L13.5,12c1-1.3,1.5-2.8,1.5-4.5C15,3.4,11.6,0,7.5,0C3.4,0,0,3.4,0,7.5C0,11.6,3.4,15,7.5,15
		c1.7,0,3.3-0.6,4.5-1.5l3.5,3.5L17,15.6z M2,7.5C2,4.5,4.5,2,7.5,2c3,0,5.5,2.5,5.5,5.5c0,3-2.5,5.5-5.5,5.5C4.5,13,2,10.5,2,7.5z"
		/>
</g>
<g id="Layer_2_2_">
	<path class="st1" d="M17,32.6L13.5,29c1-1.3,1.5-2.8,1.5-4.5c0-4.1-3.4-7.5-7.5-7.5C3.4,17,0,20.4,0,24.5C0,28.6,3.4,32,7.5,32
		c1.7,0,3.3-0.6,4.5-1.5l3.5,3.5L17,32.6z M2,24.5c0-3,2.5-5.5,5.5-5.5c3,0,5.5,2.5,5.5,5.5c0,3-2.5,5.5-5.5,5.5
		C4.5,30,2,27.5,2,24.5z"/>
</g>
</svg>
