<?xml version="1.0" encoding="utf-8"?>
<!-- Generator: Adobe Illustrator 22.1.0, SVG Export Plug-In . SVG Version: 6.00 Build 0)  -->
<svg version="1.1" id="Layer_1" xmlns="http://www.w3.org/2000/svg" xmlns:xlink="http://www.w3.org/1999/xlink" x="0px" y="0px"
	 width="20px" height="34px" viewBox="0 0 20 34" style="enable-background:new 0 0 20 34;" xml:space="preserve">
<style type="text/css">
	.st0{fill:#C5C5C5;}
	.st1{fill:#32425C;}
</style>
<path class="st0" d="M14.9,8.5L6,0v6H0v5h6v6L14.9,8.5z"/>
<path class="st0" d="M17,15h-5v2h5c2.2,0,3-1.8,3-3V3c0-1.2-0.9-3-3-3h-5v2h5c0.8,0,1,0.7,1,1.1V14C18,14.3,17.8,15,17,15z"/>
<path class="st1" d="M14.9,25.5L6,17v6H0v5h6v6L14.9,25.5z"/>
<path class="st1" d="M17,32h-5v2h5c2.2,0,3-1.8,3-3V20c0-1.2-0.9-3-3-3h-5v2h5c0.8,0,1,0.7,1,1.1V31C18,31.3,17.8,32,17,32z"/>
</svg>
