<?xml version="1.0" encoding="utf-8"?>
<!-- Generator: Adobe Illustrator 22.1.0, SVG Export Plug-In . SVG Version: 6.00 Build 0)  -->
<svg version="1.1" id="Layer_1" xmlns="http://www.w3.org/2000/svg" xmlns:xlink="http://www.w3.org/1999/xlink" x="0px" y="0px"
	 width="15px" height="60px" viewBox="0 0 15 60" style="enable-background:new 0 0 15 60;" xml:space="preserve">
<style type="text/css">
	.st0{fill:#8B8E94;}
	.st1{fill:#FFFFFF;}
	.st2{fill:#6A7180;}
	.st3{fill:#F3737C;}
</style>
<circle class="st0" cx="4.5" cy="43.5" r="1.5"/>
<circle class="st0" cx="12.5" cy="43.5" r="1.5"/>
<path class="st0" d="M15,32H4.1l-0.4-2H0v2h2l2,9h11v-2H9.4l5.6-2V32z"/>
<circle class="st1" cx="4.5" cy="28.5" r="1.5"/>
<circle class="st1" cx="12.5" cy="28.5" r="1.5"/>
<path class="st1" d="M15,17H4.1l-0.4-2H0v2h2l2,9h11v-2H9.4l5.6-2V17z"/>
<circle class="st2" cx="4.5" cy="13.5" r="1.5"/>
<circle class="st2" cx="12.5" cy="13.5" r="1.5"/>
<path class="st2" d="M15,2H4.1L3.6,0H0v2h2l2,9h11V9H9.4L15,7V2z"/>
<circle class="st3" cx="4.5" cy="58.5" r="1.5"/>
<circle class="st3" cx="12.5" cy="58.5" r="1.5"/>
<path class="st3" d="M15,47H4.1l-0.4-2H0v2h2l2,9h11v-2H9.4l5.6-2V47z"/>
</svg>
