<?xml version="1.0" encoding="utf-8"?>
<!-- Generator: Adobe Illustrator 22.1.0, SVG Export Plug-In . SVG Version: 6.00 Build 0)  -->
<svg version="1.1" id="Layer_1" xmlns="http://www.w3.org/2000/svg" xmlns:xlink="http://www.w3.org/1999/xlink" x="0px" y="0px"
	 width="21px" height="21px" viewBox="0 0 21 21" style="enable-background:new 0 0 21 21;" xml:space="preserve">
<style type="text/css">
	.st0{fill:#FFFFFF;}
</style>
<path class="st0" d="M18,0H3C1.4,0,0,1.3,0,3v15c0,1.6,1.4,3,3,3h15c1.6,0,3-1.4,3-3V3C21,1.3,19.6,0,18,0z M10.5,7
	c1.9,0,3.5,1.6,3.5,3.5S12.4,14,10.5,14S7,12.4,7,10.5S8.6,7,10.5,7z M18,18H3V9h1.2C4.1,9.5,4,10,4,10.5c0,3.6,2.9,6.5,6.5,6.5
	s6.5-2.9,6.5-6.5c0-0.5-0.1-1-0.2-1.5H18V18z M18,7h-4V3h4V7z"/>
</svg>
